<?xml version="1.0" encoding="utf-8"?>
<!-- Generator: Adobe Illustrator 21.1.0, SVG Export Plug-In . SVG Version: 6.00 Build 0)  -->
<svg version="1.1" id="Layer_1" xmlns="http://www.w3.org/2000/svg" xmlns:xlink="http://www.w3.org/1999/xlink" x="0px" y="0px"
	 viewBox="0 0 27.3 23.9" style="enable-background:new 0 0 27.3 23.9;" xml:space="preserve">
<style type="text/css">
	.st0{fill:#FFFFFF;}
</style>
<title>twitter</title>
<g id="Layer_2">
	<g id="guides">
		<path class="st0" d="M27.3,2.8c-1,0.5-2.1,0.8-3.2,1c1.2-0.8,2.1-2,2.5-3.4c-1.1,0.7-2.3,1.2-3.6,1.5C22,0.7,20.5,0,18.9,0
			c-3.2,0.1-5.7,2.8-5.6,6c0,0.5,0,0.9,0.1,1.4C8.9,7.1,4.6,4.8,1.9,1.1c-0.5,0.9-0.8,2-0.8,3c0,2,0.9,3.8,2.5,5
			c-0.9,0-1.8-0.3-2.5-0.7v0.1c-0.1,2.8,1.8,5.2,4.5,5.9c-0.5,0.1-1,0.2-1.5,0.2c-0.3,0-0.7,0-1-0.1c0.6,2.4,2.7,4.1,5.2,4.2
			c-1.9,1.7-4.4,2.6-7,2.6c-0.4,0-0.9,0-1.3-0.1c2.5,1.8,5.5,2.7,8.6,2.7c10.3,0,16-9.2,16-17.2c0-0.3,0-0.5,0-0.8
			C25.6,5.1,26.6,4,27.3,2.8z"/>
	</g>
</g>
</svg>
