<?xml version="1.0" encoding="utf-8"?>
<!-- Generator: Adobe Illustrator 21.1.0, SVG Export Plug-In . SVG Version: 6.00 Build 0)  -->
<svg version="1.1" id="Layer_1" xmlns="http://www.w3.org/2000/svg" xmlns:xlink="http://www.w3.org/1999/xlink" x="0px" y="0px"
	 viewBox="0 0 25.3 25.3" style="enable-background:new 0 0 25.3 25.3;" xml:space="preserve">
<style type="text/css">
	.st0{fill:#FFFFFF;}
</style>
<title>Instagram</title>
<g id="Layer_2">
	<g id="guides">
		<path class="st0" d="M20.7,0H4.6C2,0,0,2,0,4.6l0,0v16.2c0,2.5,2,4.5,4.6,4.5h16.2c2.5,0,4.6-2,4.6-4.5l0,0V4.6
			C25.3,2,23.2,0,20.7,0L20.7,0z M18.2,3h4v4h-4V3z M12.6,8.6c2.2,0,4,1.8,4,4s-1.8,4-4,4s-4-1.8-4-4S10.4,8.6,12.6,8.6z M22.7,19.2
			c0,2-1.6,3.5-3.5,3.5H6.1c-2,0-3.5-1.6-3.5-3.5l0,0v-9.1H6c-1.4,3.7,0.5,7.7,4.1,9.1c3.7,1.4,7.7-0.5,9.1-4.1
			c0.3-0.8,0.5-1.6,0.5-2.5s-0.2-1.7-0.5-2.5h3.5V19.2z"/>
	</g>
</g>
</svg>
